<?xml version="1.0" encoding="UTF-8" standalone="no"?>
<svg width="200" height="60" viewBox="0 0 200 60" fill="none" xmlns="http://www.w3.org/2000/svg">
  <path d="M40 10H20C14.4772 10 10 14.4772 10 20V40C10 45.5228 14.4772 50 20 50H40C45.5228 50 50 45.5228 50 40V20C50 14.4772 45.5228 10 40 10Z" fill="url(#paint0_linear)"/>
  <path d="M30 18L30 42" stroke="white" stroke-width="3" stroke-linecap="round"/>
  <path d="M21 30L39 30" stroke="white" stroke-width="3" stroke-linecap="round"/>
  <path d="M70 22H65V38H70V22Z" fill="#4361EE"/>
  <path d="M80 22H75V38H80V22Z" fill="#4361EE"/>
  <path d="M90 22H85V38H90V22Z" fill="#4361EE"/>
  <path d="M65 20C65 18.8954 65.8954 18 67 18H68C69.1046 18 70 18.8954 70 20V22H65V20Z" fill="#7209B7"/>
  <path d="M75 20C75 18.8954 75.8954 18 77 18H78C79.1046 18 80 18.8954 80 20V22H75V20Z" fill="#7209B7"/>
  <path d="M85 20C85 18.8954 85.8954 18 87 18H88C89.1046 18 90 18.8954 90 20V22H85V20Z" fill="#7209B7"/>
  <path d="M65 38V40C65 41.1046 65.8954 42 67 42H68C69.1046 42 70 41.1046 70 40V38H65Z" fill="#7209B7"/>
  <path d="M75 38V40C75 41.1046 75.8954 42 77 42H78C79.1046 42 80 41.1046 80 40V38H75Z" fill="#7209B7"/>
  <path d="M85 38V40C85 41.1046 85.8954 42 87 42H88C89.1046 42 90 41.1046 90 40V38H85Z" fill="#7209B7"/>
  <path d="M100 25C100 23.3431 101.343 22 103 22H107C108.657 22 110 23.3431 110 25V35C110 36.6569 108.657 38 107 38H103C101.343 38 100 36.6569 100 35V25Z" fill="#4361EE"/>
  <path d="M120 25C120 23.3431 121.343 22 123 22H127C128.657 22 130 23.3431 130 25V35C130 36.6569 128.657 38 127 38H123C121.343 38 120 36.6569 120 35V25Z" fill="#4361EE"/>
  <path d="M140 25C140 23.3431 141.343 22 143 22H147C148.657 22 150 23.3431 150 25V35C150 36.6569 148.657 38 147 38H143C141.343 38 140 36.6569 140 35V25Z" fill="#4361EE"/>
  <path d="M160 25C160 23.3431 161.343 22 163 22H167C168.657 22 170 23.3431 170 25V35C170 36.6569 168.657 38 167 38H163C161.343 38 160 36.6569 160 35V25Z" fill="#4361EE"/>
  <path d="M180 25C180 23.3431 181.343 22 183 22H187C188.657 22 190 23.3431 190 25V35C190 36.6569 188.657 38 187 38H183C181.343 38 180 36.6569 180 35V25Z" fill="#4361EE"/>
  <defs>
    <linearGradient id="paint0_linear" x1="10" y1="10" x2="50" y2="50" gradientUnits="userSpaceOnUse">
      <stop stop-color="#4361EE"/>
      <stop offset="1" stop-color="#7209B7"/>
    </linearGradient>
  </defs>
</svg>
